<?xml version="1.0" encoding="utf-8" ?>
<svg xmlns="http://www.w3.org/2000/svg" xmlns:xlink="http://www.w3.org/1999/xlink" width="245" height="263">
	<path fill="#F89B1F" d="M103.201 108.93C101.238 103.633 97.7373 98.8389 95.2885 93.7446C88.2829 79.1711 83.251 58.55 90.2684 43.2021C94.3607 34.2517 102.41 28.3455 111.473 24.9911C123.871 20.4023 140.551 20.2757 152.622 25.8311C159.672 29.0757 165.683 34.6755 168.378 42.0573C172.26 52.6888 169.327 64.2386 164.693 74.1317C159.265 85.7188 151.002 95.9693 142.386 105.323C140.382 107.498 133.252 113.598 132.836 115.966C132.007 118.107 120.261 127.391 117.736 129.323C117.547 129.294 117.393 129.26 117.24 129.135C115.009 127.31 103.361 111.314 103.201 108.93Z"/>
	<path fill="#A43F3A" d="M117.701 129.528C121.967 132.998 132.775 140.72 135.602 144.544C135.67 145.806 142.587 152.395 144.088 153.986C150.524 160.688 156.261 168.028 161.21 175.893C165.763 183.237 169.588 191.517 170.643 200.153C171.598 207.976 170.491 215.906 165.497 222.227C159.384 229.964 149.318 234.251 139.706 235.356C125.996 236.932 111.087 234.608 100.066 225.806C76.8659 207.281 90.9105 170.528 103.089 149.57C106.347 143.997 109.907 138.606 113.753 133.421C114.256 132.739 115.576 131.384 115.825 130.638C115.855 130.548 115.774 130.189 115.761 130.075C116.415 129.98 117.07 129.725 117.701 129.528Z"/>
	<path fill="#E96B2C" d="M115.761 130.075C111.386 132.29 107.17 134.816 102.79 137.027C89.7967 143.589 74.8704 149.484 60.2024 150.479C47.3866 151.349 34.6512 151.086 24.447 142.129C16.0957 134.799 12.5301 123.965 11.85 113.134C11.056 100.49 14.0323 86.284 22.626 76.6074C27.8196 70.7595 34.3704 67.3475 42.2183 66.8892C60.687 65.8106 79.276 82.3963 90.8205 95.2949C93.178 97.8802 95.4781 100.517 97.7193 103.204C99.3269 105.122 100.919 107.371 102.785 109.031L103.201 108.93C103.361 111.314 115.009 127.31 117.24 129.135C117.393 129.26 117.547 129.294 117.736 129.323L117.701 129.528C117.07 129.725 116.415 129.98 115.761 130.075Z"/>
	<path fill="#E82124" d="M132.836 115.966C135.35 114.467 137.656 112.451 140.012 110.699C142.095 109.151 144.321 107.759 146.494 106.34C160.757 97.028 180.99 88.083 198.302 92.4981C207.379 94.813 214.353 101.203 219.051 109.144C226.178 121.191 228.601 137.041 225.053 150.636C223.005 158.485 218.565 165.768 211.446 169.937C203.047 174.857 192.314 174.522 183.172 172.105C169.417 168.468 157.078 160.538 145.697 152.234C142.417 149.84 139.154 146.393 135.602 144.544C132.775 140.72 121.967 132.998 117.701 129.528L117.736 129.323C120.261 127.391 132.007 118.107 132.836 115.966Z"/>
</svg>
